<svg width="172" height="55" viewBox="0 0 172 55" fill="none" xmlns="http://www.w3.org/2000/svg">
<path d="M147.903 27.3604C147.903 32.475 146.061 37.1063 143.078 40.4584C140.095 43.8104 135.978 45.8834 131.426 45.8834H20.6255C11.529 45.8834 4.15253 37.5896 4.15253 27.3604C4.15253 22.2459 5.99509 17.6125 8.97808 14.2604C11.9611 10.9084 16.0783 8.83545 20.6276 8.83545H131.428C140.527 8.83545 147.903 17.1292 147.903 27.3604Z" fill="url(#paint0_linear_2357_2251)"/>
<path d="M32.2957 41.2354L32.3227 41.2187C32.869 40.9187 33.5504 41.077 33.9077 41.5833L37.3373 45.8833H38.8516L34.1175 39.8187C34.1175 39.8187 33.7913 39.4458 33.1744 39.075C32.2375 38.5104 30.6339 37.9458 28.4901 38.6791C27.8939 38.8812 27.3289 39.0458 26.7909 39.175C25.397 39.5187 24.2358 39.6416 23.4381 39.6791H23.4319C23.3841 39.6833 23.3384 39.6833 23.2948 39.6833C16.2631 39.6833 10.588 33.7854 10.9182 26.6687C11.2153 20.3062 16.3628 15.1437 22.7027 14.8479C29.8009 14.5187 35.6817 20.2125 35.6817 27.2604C35.6817 29.277 35.2018 31.1854 34.3439 32.8729C34.0635 33.4229 33.3239 33.5291 32.9043 33.0708L32.8981 33.0645C31.766 31.8208 31.7078 29.5729 31.7784 28.8145L31.7847 28.7375V21.9479C31.7847 21.0583 31.0078 20.3437 30.0896 20.4604C29.3355 20.5604 28.7871 21.2375 28.7871 22.002C28.7871 21.5312 28.5669 21.0854 28.1868 20.8041C26.6288 19.6437 24.6554 19.0104 22.5366 19.175C18.436 19.4895 15.1331 22.8104 14.8236 26.9229C14.4559 31.85 18.3508 35.9812 23.1909 35.9812C25.6878 35.9812 27.9292 34.8833 29.4685 33.1395C29.7468 33.8187 30.1332 34.4875 30.6629 35.075C31.0452 35.4979 31.4731 35.8541 31.9425 36.1416C31.9529 36.1479 31.9592 36.1562 31.9716 36.1604C33.5898 37.15 35.7128 36.5458 36.6559 34.8916C36.6954 34.8208 36.7369 34.7458 36.7764 34.675C38.1246 32.2187 38.8267 29.3562 38.6481 26.3208C38.1724 18.3 31.5125 11.9375 23.5025 11.8291C14.7446 11.7083 7.60912 18.9708 7.91448 27.7979C8.20115 36.1416 15.1725 42.7958 23.4921 42.6875C23.9304 42.6833 24.3625 42.6604 24.7883 42.6187C26.3796 42.4604 27.9417 43.2083 28.8121 44.5541C28.8183 44.5645 28.8266 44.5729 28.8328 44.5854C29.1091 45.0187 29.3979 45.4541 29.6908 45.8833H33.9367L31.8885 43.0291C31.4606 42.4291 31.6496 41.5916 32.2957 41.2354ZM22.2478 31.8729C20.5881 31.5041 19.2607 30.177 18.8951 28.5104C18.2096 25.3729 21.0014 22.575 24.1257 23.2645C25.7875 23.6291 27.1108 24.9625 27.4784 26.627C28.166 29.7645 25.3721 32.5625 22.2478 31.8729Z" fill="white"/>
<path d="M56.9241 21.1124C57.1443 21.1124 57.2544 21.2395 57.2544 21.4937V23.1374C57.2544 23.3916 57.1443 23.5187 56.9241 23.5187H49.3918C49.101 23.5187 48.8953 23.6062 48.7748 23.7791C48.6544 23.952 48.5941 24.1895 48.5941 24.4895V25.0791C48.5941 25.7249 48.8538 26.0479 49.3752 26.0479H55.013C55.8854 26.0479 56.5419 26.3041 56.9822 26.8187C57.4226 27.3333 57.6428 28.0687 57.6428 29.0249V30.4104C57.6428 31.252 57.4268 31.9333 56.9968 32.4541C56.5647 32.9729 55.8937 33.2333 54.9818 33.2333H46.6519C46.4213 33.2333 46.3049 33.1062 46.3049 32.852V31.2083C46.3049 30.9541 46.4192 30.827 46.6519 30.827H54.5456C54.8364 30.827 55.042 30.7395 55.1625 30.5666C55.283 30.3937 55.3433 30.1562 55.3433 29.8562V29.1458C55.3433 28.4999 55.0815 28.177 54.5622 28.177H48.9244C48.0519 28.177 47.3955 27.9208 46.9551 27.4062C46.5147 26.8937 46.2925 26.1562 46.2925 25.1979V23.9333C46.2925 23.0916 46.5085 22.4104 46.9385 21.8895C47.3685 21.3708 48.0416 21.1104 48.9535 21.1104H56.9241V21.1124Z" fill="#FFDD43"/>
<path d="M66.9678 23.7271C67.4788 23.7271 67.9026 23.7771 68.2391 23.875C68.5756 23.9729 68.8415 24.1354 69.0368 24.3604C69.232 24.5854 69.3691 24.8791 69.4501 25.2437C69.5312 25.6083 69.5706 26.0479 69.5706 26.5687V28.2125C69.5706 28.5812 69.5 28.8395 69.3608 28.9833C69.2196 29.127 69.0056 29.2 68.7148 29.2H61.1223V29.6166C61.1223 30.1583 61.2344 30.5521 61.4609 30.7937C61.6873 31.0354 62.1256 31.1583 62.7758 31.1583H69.0451C69.2258 31.1583 69.3151 31.2625 69.3151 31.4708V32.925C69.3151 33.1333 69.2258 33.2375 69.0451 33.2375H62.5639C61.8826 33.2375 61.3134 33.175 60.8564 33.0479C60.3994 32.9208 60.0338 32.7166 59.7596 32.4333C59.4833 32.15 59.2859 31.7875 59.1655 31.3416C59.045 30.8979 58.9847 30.3625 58.9847 29.7396V27.2458C58.9847 26.6229 59.045 26.0896 59.1655 25.6437C59.2859 25.2 59.4833 24.8354 59.7596 24.5521C60.0358 24.2687 60.4015 24.0625 60.8564 23.9291C61.3134 23.7958 61.8805 23.7291 62.5639 23.7291H66.9678V23.7271ZM61.1181 27.6562H67.2087C67.3791 27.6562 67.4643 27.5583 67.4643 27.3625V26.6354C67.4643 26.2771 67.3999 26.0229 67.269 25.8729C67.1381 25.7229 66.8972 25.6479 66.5482 25.6479H62.7737C62.1215 25.6479 61.6831 25.7666 61.4588 26.0021C61.2324 26.2396 61.1202 26.6333 61.1202 27.1875V27.6562H61.1181Z" fill="#FFDD43"/>
<path d="M77.8549 23.727C78.5259 23.727 79.093 23.7936 79.5542 23.927C80.0153 24.0603 80.383 24.2665 80.6593 24.5499C80.9356 24.8332 81.1329 25.1957 81.2534 25.6415C81.3739 26.0853 81.4341 26.6207 81.4341 27.2436V31.8478C81.4341 32.1249 81.4175 32.352 81.3822 32.5311C81.3469 32.7103 81.2866 32.852 81.2014 32.9561C81.1163 33.0603 81.0041 33.1332 80.8628 33.1728C80.7216 33.2145 80.5429 33.2332 80.3207 33.2332H73.1623C72.7219 33.2332 72.3522 33.1832 72.0572 33.0853C71.7622 32.9874 71.5233 32.8395 71.3426 32.6436C71.1619 32.4478 71.0352 32.1936 70.9583 31.8811C70.8835 31.5686 70.8461 31.1999 70.8461 30.7728V29.9415C70.8461 29.5832 70.8835 29.2645 70.9583 28.9811C71.0331 28.6978 71.1619 28.4582 71.3426 28.2624C71.5233 28.0665 71.7601 27.9186 72.0572 27.8207C72.3522 27.7228 72.7219 27.6728 73.1623 27.6728H79.282V27.3436C79.282 27.0665 79.2571 26.8311 79.2072 26.6332C79.1574 26.4374 79.0722 26.279 78.9517 26.1561C78.8313 26.0353 78.6651 25.9457 78.4553 25.8874C78.2455 25.829 77.9733 25.7999 77.643 25.7999H71.3571C71.1764 25.7999 71.0871 25.6957 71.0871 25.4874V24.0332C71.0871 23.8249 71.1764 23.7207 71.3571 23.7207H77.8549V23.727ZM78.8458 31.327C79.0057 31.327 79.1179 31.2832 79.1844 31.1978C79.2488 31.1103 79.282 30.9582 79.282 30.7395V29.2165H73.7793C73.4677 29.2165 73.2496 29.2895 73.1249 29.4332C73.0003 29.577 72.938 29.7874 72.938 30.0645V30.429C72.938 30.7415 73.0003 30.9686 73.1249 31.1124C73.2496 31.2561 73.4677 31.329 73.7793 31.329H78.8458V31.327Z" fill="#FFDD43"/>
<path d="M90.7861 23.7271C90.9668 23.7271 91.0561 23.8312 91.0561 24.0396V25.4937C91.0561 25.7021 90.9668 25.8062 90.7861 25.8062H86.7873C86.4674 25.8062 86.2015 25.8375 85.9896 25.9021C85.7798 25.9666 85.6115 26.0687 85.4869 26.2146C85.3623 26.3583 85.2729 26.5541 85.2231 26.8041C85.1732 27.0521 85.1483 27.3562 85.1483 27.7125V32.8541C85.1483 33.1083 85.0382 33.2354 84.818 33.2354H83.3452C83.1146 33.2354 82.9983 33.1083 82.9983 32.8541V27.2458C82.9983 26.6229 83.0585 26.0896 83.179 25.6437C83.2995 25.2 83.4968 24.8354 83.7731 24.5521C84.0494 24.2687 84.415 24.0625 84.8699 23.9291C85.3269 23.7958 85.894 23.7291 86.5775 23.7291H90.7861V23.7271Z" fill="#FFDD43"/>
<path d="M101.522 23.7271C101.702 23.7271 101.792 23.8312 101.792 24.0396V25.4937C101.792 25.7021 101.702 25.8062 101.522 25.8062H95.6885C95.3582 25.8062 95.086 25.8375 94.8762 25.9021C94.6664 25.9666 94.5002 26.0687 94.3798 26.2146C94.2593 26.3583 94.1741 26.5541 94.1243 26.8041C94.0744 27.0521 94.0495 27.3562 94.0495 27.7125V29.2541C94.0495 29.6229 94.0744 29.9291 94.1243 30.1708C94.1741 30.4125 94.2593 30.6062 94.3798 30.75C94.5002 30.8937 94.6664 30.9979 94.8762 31.0625C95.086 31.1271 95.3582 31.1583 95.6885 31.1583H101.522C101.702 31.1583 101.792 31.2625 101.792 31.4708V32.925C101.792 33.1333 101.702 33.2375 101.522 33.2375H95.4766C94.7952 33.2375 94.226 33.175 93.7711 33.0479C93.3141 32.9208 92.9485 32.7166 92.6743 32.4333C92.398 32.15 92.2007 31.7875 92.0802 31.3416C91.9597 30.8979 91.8995 30.3625 91.8995 29.7396V27.2458C91.8995 26.6229 91.9597 26.0896 92.0802 25.6437C92.2007 25.2 92.398 24.8354 92.6743 24.5521C92.9506 24.2687 93.3162 24.0625 93.7711 23.9291C94.2281 23.7958 94.7952 23.7291 95.4766 23.7291H101.522V23.7271Z" fill="#FFDD43"/>
<path d="M105.04 20.2458C105.261 20.2458 105.371 20.3729 105.371 20.6271V23.7271H110.994C111.665 23.7271 112.232 23.7938 112.693 23.9271C113.154 24.0604 113.522 24.2667 113.798 24.55C114.075 24.8333 114.272 25.1959 114.392 25.6417C114.513 26.0854 114.573 26.6209 114.573 27.2438V32.8521C114.573 33.1063 114.463 33.2334 114.243 33.2334H112.77C112.55 33.2334 112.44 33.1063 112.44 32.8521V27.8313C112.44 27.4729 112.419 27.1708 112.38 26.9229C112.34 26.675 112.261 26.4792 112.147 26.3334C112.033 26.1896 111.873 26.0854 111.673 26.0209C111.472 25.9584 111.212 25.925 110.892 25.925H105.375V32.85C105.375 33.1042 105.265 33.2313 105.045 33.2313H103.572C103.352 33.2313 103.242 33.1042 103.242 32.85V20.6271C103.242 20.3729 103.352 20.2458 103.572 20.2458H105.04Z" fill="#FFDD43"/>
<path d="M123.113 23.727C123.784 23.727 124.351 23.7936 124.812 23.927C125.273 24.0603 125.641 24.2665 125.917 24.5499C126.194 24.8332 126.391 25.1957 126.511 25.6415C126.632 26.0853 126.692 26.6207 126.692 27.2436V31.8478C126.692 32.1249 126.675 32.352 126.64 32.5311C126.605 32.7103 126.545 32.852 126.459 32.9561C126.374 33.0603 126.262 33.1332 126.121 33.1728C125.98 33.2145 125.801 33.2332 125.579 33.2332H118.422C117.982 33.2332 117.612 33.1832 117.317 33.0853C117.022 32.9874 116.783 32.8395 116.603 32.6436C116.422 32.4478 116.295 32.1936 116.218 31.8811C116.144 31.5686 116.106 31.1999 116.106 30.7728V29.9415C116.106 29.5832 116.144 29.2645 116.218 28.9811C116.293 28.6978 116.422 28.4582 116.603 28.2624C116.783 28.0665 117.02 27.9186 117.317 27.8207C117.612 27.7228 117.982 27.6728 118.422 27.6728H124.542V27.3436C124.542 27.0665 124.517 26.8311 124.467 26.6332C124.417 26.4374 124.332 26.279 124.212 26.1561C124.091 26.0353 123.925 25.9457 123.715 25.8874C123.506 25.829 123.233 25.7999 122.903 25.7999H116.617C116.436 25.7999 116.347 25.6957 116.347 25.4874V24.0332C116.347 23.8249 116.436 23.7207 116.617 23.7207H123.113V23.727ZM124.106 31.327C124.266 31.327 124.378 31.2832 124.444 31.1978C124.509 31.1103 124.542 30.9582 124.542 30.7395V29.2165H119.039C118.728 29.2165 118.512 29.2895 118.385 29.4332C118.26 29.577 118.198 29.7874 118.198 30.0645V30.429C118.198 30.7415 118.26 30.9686 118.385 31.1124C118.51 31.2561 118.728 31.329 119.039 31.329H124.106V31.327Z" fill="#FFDD43"/>
<path d="M130.12 20.2124C130.34 20.2124 130.45 20.3395 130.45 20.5937V22.2374C130.45 22.5041 130.34 22.6353 130.12 22.6353H128.647C128.416 22.6353 128.302 22.502 128.302 22.2374V20.5937C128.302 20.3395 128.416 20.2124 128.647 20.2124H130.12ZM130.12 23.727C130.34 23.727 130.45 23.8603 130.45 24.1249V32.8499C130.45 33.1041 130.34 33.2312 130.12 33.2312H128.647C128.427 33.2312 128.317 33.1041 128.317 32.8499V24.1249C128.317 23.8603 128.427 23.727 128.647 23.727H130.12Z" fill="#FFDD43"/>
<path d="M134.181 20.2458C134.401 20.2458 134.511 20.3729 134.511 20.6271V32.85C134.511 33.1042 134.401 33.2313 134.181 33.2313H132.708C132.488 33.2313 132.378 33.1042 132.378 32.85V20.6271C132.378 20.3729 132.488 20.2458 132.708 20.2458H134.181Z" fill="#FFDD43"/>
<defs>
<linearGradient id="paint0_linear_2357_2251" x1="8.33497" y1="47.9164" x2="145.984" y2="6.35699" gradientUnits="userSpaceOnUse">
<stop stop-color="#012EC7"/>
<stop offset="1" stop-color="#0182F1"/>
</linearGradient>
</defs>
</svg>
