<svg width="254" height="18" viewBox="0 0 254 18" fill="none" xmlns="http://www.w3.org/2000/svg">
<path d="M0 9C0 13.4183 3.58172 17 8 17C12.4183 17 16 13.4183 16 9C16 4.58172 12.4183 1 8 1C3.58172 1 0 4.58172 0 9ZM254 9L239 0.339746V17.6603L254 9ZM10.9286 10.5C11.757 10.5 12.4286 9.82843 12.4286 9C12.4286 8.17157 11.757 7.5 10.9286 7.5V10.5ZM16.7857 7.5C15.9573 7.5 15.2857 8.17157 15.2857 9C15.2857 9.82843 15.9573 10.5 16.7857 10.5V7.5ZM22.6429 10.5C23.4713 10.5 24.1429 9.82843 24.1429 9C24.1429 8.17157 23.4713 7.5 22.6429 7.5V10.5ZM28.5 7.5C27.6716 7.5 27 8.17157 27 9C27 9.82843 27.6716 10.5 28.5 10.5V7.5ZM34.3571 10.5C35.1856 10.5 35.8571 9.82843 35.8571 9C35.8571 8.17157 35.1856 7.5 34.3571 7.5V10.5ZM40.2143 7.5C39.3859 7.5 38.7143 8.17157 38.7143 9C38.7143 9.82843 39.3859 10.5 40.2143 10.5V7.5ZM46.0714 10.5C46.8999 10.5 47.5714 9.82843 47.5714 9C47.5714 8.17157 46.8999 7.5 46.0714 7.5V10.5ZM51.9286 7.5C51.1001 7.5 50.4286 8.17157 50.4286 9C50.4286 9.82843 51.1001 10.5 51.9286 10.5V7.5ZM57.7857 10.5C58.6141 10.5 59.2857 9.82843 59.2857 9C59.2857 8.17157 58.6141 7.5 57.7857 7.5V10.5ZM63.6429 7.5C62.8144 7.5 62.1429 8.17157 62.1429 9C62.1429 9.82843 62.8144 10.5 63.6429 10.5V7.5ZM69.5 10.5C70.3284 10.5 71 9.82843 71 9C71 8.17157 70.3284 7.5 69.5 7.5V10.5ZM75.3571 7.5C74.5287 7.5 73.8571 8.17157 73.8571 9C73.8571 9.82843 74.5287 10.5 75.3571 10.5V7.5ZM81.2143 10.5C82.0427 10.5 82.7143 9.82843 82.7143 9C82.7143 8.17157 82.0427 7.5 81.2143 7.5V10.5ZM87.0714 7.5C86.243 7.5 85.5714 8.17157 85.5714 9C85.5714 9.82843 86.243 10.5 87.0714 10.5V7.5ZM92.9286 10.5C93.757 10.5 94.4286 9.82843 94.4286 9C94.4286 8.17157 93.757 7.5 92.9286 7.5V10.5ZM98.7857 7.5C97.9573 7.5 97.2857 8.17157 97.2857 9C97.2857 9.82843 97.9573 10.5 98.7857 10.5V7.5ZM104.643 10.5C105.471 10.5 106.143 9.82843 106.143 9C106.143 8.17157 105.471 7.5 104.643 7.5V10.5ZM110.5 7.5C109.672 7.5 109 8.17157 109 9C109 9.82843 109.672 10.5 110.5 10.5V7.5ZM116.357 10.5C117.186 10.5 117.857 9.82843 117.857 9C117.857 8.17157 117.186 7.5 116.357 7.5V10.5ZM122.214 7.5C121.386 7.5 120.714 8.17157 120.714 9C120.714 9.82843 121.386 10.5 122.214 10.5V7.5ZM128.071 10.5C128.9 10.5 129.571 9.82843 129.571 9C129.571 8.17157 128.9 7.5 128.071 7.5V10.5ZM133.929 7.5C133.1 7.5 132.429 8.17157 132.429 9C132.429 9.82843 133.1 10.5 133.929 10.5V7.5ZM139.786 10.5C140.614 10.5 141.286 9.82843 141.286 9C141.286 8.17157 140.614 7.5 139.786 7.5V10.5ZM145.643 7.5C144.814 7.5 144.143 8.17157 144.143 9C144.143 9.82843 144.814 10.5 145.643 10.5V7.5ZM151.5 10.5C152.328 10.5 153 9.82843 153 9C153 8.17157 152.328 7.5 151.5 7.5V10.5ZM157.357 7.5C156.529 7.5 155.857 8.17157 155.857 9C155.857 9.82843 156.529 10.5 157.357 10.5V7.5ZM163.214 10.5C164.043 10.5 164.714 9.82843 164.714 9C164.714 8.17157 164.043 7.5 163.214 7.5V10.5ZM169.071 7.5C168.243 7.5 167.571 8.17157 167.571 9C167.571 9.82843 168.243 10.5 169.071 10.5V7.5ZM174.929 10.5C175.757 10.5 176.429 9.82843 176.429 9C176.429 8.17157 175.757 7.5 174.929 7.5V10.5ZM180.786 7.5C179.957 7.5 179.286 8.17157 179.286 9C179.286 9.82843 179.957 10.5 180.786 10.5V7.5ZM186.643 10.5C187.471 10.5 188.143 9.82843 188.143 9C188.143 8.17157 187.471 7.5 186.643 7.5V10.5ZM192.5 7.5C191.672 7.5 191 8.17157 191 9C191 9.82843 191.672 10.5 192.5 10.5V7.5ZM198.357 10.5C199.186 10.5 199.857 9.82843 199.857 9C199.857 8.17157 199.186 7.5 198.357 7.5V10.5ZM204.214 7.5C203.386 7.5 202.714 8.17157 202.714 9C202.714 9.82843 203.386 10.5 204.214 10.5V7.5ZM210.071 10.5C210.9 10.5 211.571 9.82843 211.571 9C211.571 8.17157 210.9 7.5 210.071 7.5V10.5ZM215.929 7.5C215.1 7.5 214.429 8.17157 214.429 9C214.429 9.82843 215.1 10.5 215.929 10.5V7.5ZM221.786 10.5C222.614 10.5 223.286 9.82843 223.286 9C223.286 8.17157 222.614 7.5 221.786 7.5V10.5ZM227.643 7.5C226.814 7.5 226.143 8.17157 226.143 9C226.143 9.82843 226.814 10.5 227.643 10.5V7.5ZM233.5 10.5C234.328 10.5 235 9.82843 235 9C235 8.17157 234.328 7.5 233.5 7.5V10.5ZM239.357 7.5C238.529 7.5 237.857 8.17157 237.857 9C237.857 9.82843 238.529 10.5 239.357 10.5V7.5ZM245.214 10.5C246.043 10.5 246.714 9.82843 246.714 9C246.714 8.17157 246.043 7.5 245.214 7.5V10.5ZM251.071 7.5C250.243 7.5 249.571 8.17157 249.571 9C249.571 9.82843 250.243 10.5 251.071 10.5V7.5ZM8 10.5H10.9286V7.5H8V10.5ZM16.7857 10.5H22.6429V7.5H16.7857V10.5ZM28.5 10.5H34.3571V7.5H28.5V10.5ZM40.2143 10.5H46.0714V7.5H40.2143V10.5ZM51.9286 10.5H57.7857V7.5H51.9286V10.5ZM63.6429 10.5H69.5V7.5H63.6429V10.5ZM75.3571 10.5H81.2143V7.5H75.3571V10.5ZM87.0714 10.5H92.9286V7.5H87.0714V10.5ZM98.7857 10.5H104.643V7.5H98.7857V10.5ZM110.5 10.5H116.357V7.5H110.5V10.5ZM122.214 10.5H128.071V7.5H122.214V10.5ZM133.929 10.5H139.786V7.5H133.929V10.5ZM145.643 10.5H151.5V7.5H145.643V10.5ZM157.357 10.5H163.214V7.5H157.357V10.5ZM169.071 10.5H174.929V7.5H169.071V10.5ZM180.786 10.5H186.643V7.5H180.786V10.5ZM192.5 10.5H198.357V7.5H192.5V10.5ZM204.214 10.5H210.071V7.5H204.214V10.5ZM215.929 10.5H221.786V7.5H215.929V10.5ZM227.643 10.5H233.5V7.5H227.643V10.5ZM239.357 10.5H245.214V7.5H239.357V10.5Z" fill="#0182F1"/>
</svg>
